#!OML:ASF H:\Swim 2\Project 1\Capture day 1\Session 1\male.ASF
:FULLY-SPECIFIED
:DEGREES
1601
root 7.76052 9.85401 11.8384 94.2038 -4.57451 4.86551
lowerback 0.35701 1.70663 -7.24243
upperback -4.90881 2.21372 2.40216
thorax -5.72351 1.52673 6.47531
lowerneck -20.6946 -1.88985 -3.03483
upperneck 27.9659 0.435394 -6.32841
head 12.839 -0.946902 -1.84225
rclavicle -4.6118e-014 -1.98785e-015
rhumerus -1.07838 4.00157 -23.7936
rradius 98.6382
rwrist -26.8114
rhand -25.3646 7.78491
rfingers 7.12502
rthumb 1.15942 -22.1917
lclavicle -4.6118e-014 -1.98785e-015
lhumerus 76.562 27.9576 31.1955
lradius 35.2472
lwrist 24.9306
lhand -33.4046 -11.5354
lfingers 7.12502
lthumb -6.60481 18.3416
rfemur -33.9556 6.45967 20.466
rtibia 24.392
rfoot 38.5361 3.79181
rtoes 20.864
lfemur -32.0085 -5.97961 -20.0091
ltibia 45.0133
lfoot 17.7735 2.44398
ltoes 34.801
1602
root 7.75483 9.85029 11.8277 94.2079 -4.55588 5.24082
lowerback 0.401451 1.44974 -7.2138
upperback -4.99439 1.85112 2.24345
thorax -5.77004 1.34208 6.31083
lowerneck -20.6172 -1.79926 -3.31632
upperneck 27.7057 0.655999 -6.37457
head 12.727 -0.880724 -1.76716
rclavicle -5.725e-014 1.81888e-014
rhumerus -2.66958 4.4175 -25.4
rradius 98.2612
rwrist -26.1825
rhand -26.7295 7.72599
rfingers 7.12502
rthumb -0.158787 -22.2537
lclavicle -5.725e-014 1.81888e-014
lhumerus 77.7651 27.4311 31.7695
lradius 34.6131
lwrist 24.8341
lhand -32.9552 -10.9678
lfingers 7.12502
lthumb -6.17098 18.9224
rfemur -33.6237 6.08006 20.9335
rtibia 25.035
rfoot 38.603 4.02831
rtoes 20.9609
lfemur -32.5221 -5.67601 -19.8556
ltibia 44.5594
lfoot 17.3742 2.42773
ltoes 34.9327
1603
root 7.74918 9.84665 11.8164 94.2049 -4.55115 5.57085
lowerback 0.449567 1.18957 -7.16464
upperback -5.07076 1.48345 2.06782
thorax -5.80904 1.15265 6.11704
lowerneck -20.5613 -1.69061 -3.55929
upperneck 27.4477 0.887974 -6.42062
head 12.6202 -0.805076 -1.69764
rclavicle 1.11319e-014 -1.2921e-014
rhumerus -4.21908 4.90623 -27.0263
rradius 97.767
rwrist -25.4875
rhand -28.0418 7.69442
rfingers 7.12502
rthumb -1.42632 -22.2806
lclavicle 1.11319e-014 -1.2921e-014
lhumerus 78.8561 26.9864 32.2801
lradius 33.9716
lwrist 24.709
lhand -32.5703 -10.5861
lfingers 7.12502
lthumb -5.79933 19.3146
rfemur -33.2424 5.78451 21.3502
rtibia 25.7463
rfoot 38.7022 4.28722
rtoes 21.0453
lfemur -33.0935 -5.47862 -19.6815
ltibia 43.9955
lfoot 16.8637 2.72939
ltoes 35.0412
1604
root 7.74394 9.84312 11.8042 94.1812 -4.55887 5.85484
lowerback 0.514295 0.931299 -7.09857
upperback -5.12852 1.11709 1.87761
thorax -5.83998 0.961595 5.89817
lowerneck -20.5409 -1.57241 -3.76481
upperneck 27.1921 1.11375 -6.4427
head 12.5207 -0.725016 -1.62739
rclavicle -6.36111e-015 3.01159e-014
rhumerus -5.71154 5.46307 -28.6504
rradius 97.1684
rwrist -24.9144
rhand -29.2639 7.71589
rfingers 7.12502
rthumb -2.60662 -22.2479
lclavicle -6.36111e-015 3.01159e-014
lhumerus 79.8461 26.6387 32.7078
lradius 33.3026
lwrist 24.5228
lhand -32.3306 -10.4363
lfingers 7.12502
lthumb -5.56792 19.4705
rfemur -32.7938 5.55426 21.724
rtibia 26.504
rfoot 38.8779 4.55964
rtoes 21.0622
lfemur -33.6975 -5.42311 -19.4717
ltibia 43.3401
lfoot 16.273 3.37671
ltoes 35.0696
1605
root 7.73912 9.84 11.7926 94.1429 -4.57895 6.08681
lowerback 0.587415 0.683108 -7.01948
upperback -5.16558 0.764037 1.67498
thorax -5.8585 0.775097 5.6583
lowerneck -20.5745 -1.45483 -3.93103
upperneck 26.9535 1.32147 -6.44072
head 12.4379 -0.646423 -1.55918
rclavicle 1.59028e-014 -2.88238e-015
rhumerus -7.15174 6.0806 -30.26
rradius 96.4937
rwrist -24.5958
rhand -30.4026 7.80377
rfingers 7.12502
rthumb -3.70626 -22.1438
lclavicle 1.59028e-014 -2.88238e-015
lhumerus 80.805 26.3666 33.1397
lradius 32.5684
lwrist 24.1723
lhand -32.2309 -10.4769
lfingers 7.12502
lthumb -5.47166 19.4325
rfemur -32.2794 5.35599 22.0675
rtibia 27.2798
rfoot 39.1315 4.84599
rtoes 20.9749
lfemur -34.3217 -5.54087 -19.206
ltibia 42.601
lfoot 15.6475 4.35441
ltoes 35.0636
1606
root 7.73456 9.8374 11.7828 94.1589 -4.60749 6.23845
lowerback 0.592426 0.459099 -6.94599
upperback -5.20803 0.44877 1.4698
thorax -5.85308 0.607294 5.41735
lowerneck -20.6238 -1.35011 -4.05813
upperneck 26.7225 1.48904 -6.40749
head 12.3593 -0.577264 -1.49294
rclavicle 1.43125e-014 -1.14301e-014
rhumerus -8.56729 6.76282 -31.8179
rradius 95.7665
rwrist -24.5942
rhand -31.5214 8.00199
rfingers 7.12502
rthumb -4.78657 -21.9239
lclavicle 1.43125e-014 -1.14301e-014
lhumerus 81.8181 26.0947 33.7264
lradius 31.7307
lwrist 23.5144
lhand -32.2802 -10.6156
lfingers 7.12502
lthumb -5.51931 19.2926
rfemur -31.7729 5.17735 22.3934
rtibia 28.0478
rfoot 39.4991 5.15573
rtoes 20.7994
lfemur -35.0187 -5.82193 -18.8538
ltibia 41.7813
lfoot 15.0409 5.59832
ltoes 35.078
1607
root 7.73022 9.83559 11.7764 94.233 -4.64039 6.30537
lowerback 0.524628 0.261339 -6.87311
upperback -5.25278 0.174755 1.26403
thorax -5.81749 0.459374 5.17375
lowerneck -20.6975 -1.25521 -4.13277
upperneck 26.4899 1.62086 -6.35752
head 12.2835 -0.516311 -1.43558
rclavicle -1.11319e-014 -1.72943e-014
rhumerus -9.95664 7.49492 -33.3426
rradius 94.9892
rwrist -24.835
rhand -32.6331 8.29582
rfingers 7.12502
rthumb -5.85999 -21.6031
lclavicle -1.11319e-014 -1.72943e-014
lhumerus 82.9454 25.7904 34.5724
lradius 30.7815
lwrist 22.4689
lhand -32.4376 -10.728
lfingers 7.12502
lthumb -5.67126 19.1761
rfemur -31.28 5.00652 22.7091
rtibia 28.7862
rfoot 39.959 5.48249
rtoes 20.5446
lfemur -35.769 -6.28238 -18.3923
ltibia 40.8812
lfoot 14.476 7.06728
ltoes 35.1969
1608
root 7.72612 9.83474 11.7743 94.3544 -4.6788 6.28053
lowerback 0.396269 0.092261 -6.81996
upperback -5.32399 -0.056249 1.0719
thorax -5.7846 0.335473 4.95298
lowerneck -20.7061 -1.16101 -4.14922
upperneck 26.2682 1.73169 -6.32243
head 12.1986 -0.459413 -1.39681
rclavicle 2.38542e-015 8.74653e-015
rhumerus -11.3533 8.31498 -34.8352
rradius 94.159
rwrist -25.1417
rhand -33.7656 8.69407
rfingers 7.12502
rthumb -6.95326 -21.1717
lclavicle 2.38542e-015 8.74653e-015
lhumerus 84.1512 25.3885 35.7086
lradius 29.7429
lwrist 21.049
lhand -32.6709 -10.7142
lfingers 7.12502
lthumb -5.89651 19.1838
rfemur -30.7972 4.83669 23.0144
rtibia 29.4932
rfoot 40.4548 5.81419
rtoes 20.2817
lfemur -36.5395 -6.90803 -17.8169
ltibia 39.9032
lfoot 13.9499 8.70615
ltoes 35.4255
1609
root 7.72266 9.83492 11.7752 94.5188 -4.71616 6.14848
lowerback 0.217112 -0.0454775 -6.76688
upperback -5.40748 -0.240521 0.890797
thorax -5.74412 0.235521 4.74076
lowerneck -20.6931 -1.06136 -4.10755
upperneck 26.042 1.83329 -6.30561
head 12.1078 -0.402456 -1.37614
rclavicle 2.8625e-014 3.77691e-015
rhumerus -12.7312 9.17965 -36.3263
rradius 93.2539
rwrist -25.3261
rhand -34.9087 9.13906
rfingers 7.12502
rthumb -8.05663 -20.6874
lclavicle 2.8625e-014 3.77691e-015
lhumerus 85.4641 24.8938 37.1909
lradius 28.6373
lwrist 19.2896
lhand -32.9305 -10.544
lfingers 7.12502
lthumb -6.14709 19.3468
rfemur -30.3368 4.68842 23.3098
rtibia 30.1834
rfoot 40.9972 6.11718
rtoes 20.0831
lfemur -37.3122 -7.66364 -17.124
ltibia 38.8598
lfoot 13.4882 10.4617
ltoes 35.8631
